<svg id="Calque_2" data-name="Calque 2" xmlns="http://www.w3.org/2000/svg" viewBox="0 0 500 500"><defs><style>.cls-1{fill:#e6007e;opacity:0.46;}.cls-2{fill:#2089da;}</style></defs><path d="M316.32,187.77,295,143.53l-38.82,76.32L165.41,37.92h-126l-1,.5L249.74,462.08l1.59-.79,61.4-126.71.83.4-35.71-71.6ZM248.86,378.7,99.31,75.64h41.51L269.78,337Z"/><polygon class="cls-1" points="460.33 45.38 440.31 85.89 440.23 85.89 460.26 45.38 460.33 45.38"/><path class="cls-2" d="M269.78,45.38v1.18l20.8,41.12,0,0,53.53,105.48-39.3,79.5,20.29,41.65,1.81.9L440.23,85.89l20-40.51Zm94.94,106L331.47,85.89h65.64Z"/></svg>